<svg width="50" height="49" viewBox="0 0 50 49" fill="none" xmlns="http://www.w3.org/2000/svg">
<path fill-rule="evenodd" clip-rule="evenodd" d="M25.065 0C11.2925 0 0.130005 11.1625 0.130005 24.935C0.130005 35.95 7.2725 45.2975 17.1825 48.5975C18.43 48.8225 18.88 48.055 18.88 47.395C18.88 46.8025 18.86 45.2325 18.8525 43.155C11.915 44.66 10.45 39.81 10.45 39.81C9.32 36.93 7.6825 36.1625 7.6825 36.1625C5.42 34.615 7.855 34.65 7.855 34.65C10.36 34.825 11.6725 37.22 11.6725 37.22C13.8975 41.03 17.5125 39.93 18.9275 39.2925C19.155 37.68 19.805 36.58 20.515 35.9575C14.98 35.33 9.16 33.19 9.16 23.6325C9.16 20.915 10.1325 18.685 11.72 16.945C11.4675 16.3125 10.605 13.775 11.9675 10.345C11.9675 10.345 14.06 9.6725 18.8225 12.8975C20.8175 12.345 22.945 12.0675 25.0625 12.0575C27.185 12.0675 29.315 12.345 31.3025 12.8975C36.0675 9.67 38.1575 10.345 38.1575 10.345C39.52 13.775 38.665 16.3125 38.405 16.945C40.005 18.685 40.965 20.9125 40.965 23.6325C40.965 33.215 35.14 35.32 29.585 35.9375C30.4725 36.7075 31.2725 38.2275 31.2725 40.5525C31.2725 43.8875 31.2425 46.5775 31.2425 47.395C31.2425 48.0625 31.6875 48.8375 32.96 48.5925C42.865 45.2875 50 35.9475 50 24.935C50 11.1625 38.8375 0 25.065 0Z" fill="#2E3A59"/>
</svg>
