<svg width="479" height="144" viewBox="0 0 479 144" fill="none" xmlns="http://www.w3.org/2000/svg">
<g clip-path="url(#clip0)">
<circle cx="50" cy="98" r="23" fill="#C79820"/>
<circle cx="73" cy="70" r="37" fill="#9C1566"/>
<circle cx="96" cy="84" r="23" fill="#EFC55A"/>
<circle cx="448" cy="75" r="23" fill="#9C1566"/>
<circle cx="425" cy="52" r="37" fill="#C79820"/>
<circle cx="388" cy="32" r="23" fill="#9C1566"/>
<path d="M111.373 87L117.262 60.8965H118.009L119.063 65.7744L114.317 87H111.373ZM117.569 81.6826L118.185 78.7822H124.029L119.063 56.2822H122.052L128.907 87H125.919L124.776 81.6826H117.569ZM131.896 87V56.2383H134.884V84.0557H148.419V87H131.896ZM151.012 87V56.2383H167.008V59.1826H154V70.2129H162.877V73.1572H154V84.0557H167.008V87H151.012ZM169.864 87L177.467 71.0918L170.392 56.2383H173.292L178.917 67.6641L184.498 56.2383H187.442L180.367 71.0918L187.97 87H184.938L178.917 74.6514L172.853 87H169.864ZM190.475 87L196.363 60.8965H197.11L198.165 65.7744L193.419 87H190.475ZM196.671 81.6826L197.286 78.7822H203.131L198.165 56.2822H201.153L208.009 87H205.021L203.878 81.6826H196.671ZM211.041 87V62.083H211.393L214.029 66.3457V87H211.041ZM211.041 58.1279V56.2383H213.678L230.597 83.2646V87H229.103L211.041 58.1279ZM227.608 74.8711V56.2383H230.597V79.2217H230.245L227.608 74.8711ZM234.244 87V56.2383H250.24V59.1826H237.232V70.2129H246.109V73.1572H237.232V84.0557H250.24V87H234.244ZM253.8 87V56.2383H256.788V87H253.8ZM258.897 73.4209V70.6523H264.127C266.998 70.6523 268.639 69.2754 269.049 66.5215C269.107 66.0234 269.137 65.4814 269.137 64.8955C269.137 61.5264 267.789 59.5928 265.094 59.0947C264.537 58.9775 263.937 58.9189 263.292 58.9189H258.897V56.2383H264.083C269.386 56.502 272.052 59.3438 272.081 64.7637C272.052 68.3086 271.041 70.7256 269.049 72.0146C270.895 72.8643 271.964 74.5635 272.257 77.1123C272.286 77.2588 272.301 77.376 272.301 77.4639L273.048 87H270.191L269.532 79.1777C269.327 76.541 268.668 74.8564 267.555 74.124C266.764 73.626 265.724 73.3916 264.435 73.4209H258.897ZM285.88 80.0566L288.604 79.0898C288.751 79.998 289.044 80.7891 289.483 81.4629C289.923 82.1367 290.392 82.6494 290.89 83.001C291.417 83.3525 291.915 83.6455 292.384 83.8799C292.882 84.085 293.292 84.2168 293.614 84.2754L294.098 84.3193V87.1318C291.461 87.1318 289.264 86.0186 287.506 83.792C286.451 82.4443 285.909 81.1992 285.88 80.0566ZM286.231 64.5C286.231 61.3945 287.594 59.0361 290.318 57.4248C291.666 56.6338 292.926 56.2383 294.098 56.2383V59.0508C293.043 59.1094 292.003 59.6074 290.978 60.5449C289.806 61.6582 289.205 63.0205 289.176 64.6318C289.176 66.624 290.611 68.0889 293.482 69.0264C294.215 69.2607 295.313 69.5391 296.778 69.8613C298.155 70.1836 299.107 70.4326 299.635 70.6084C302.242 71.5459 303.927 72.9229 304.688 74.7393C305.069 75.6768 305.26 76.7607 305.26 77.9912C305.26 80.54 304.278 82.752 302.315 84.627C300.528 86.2969 298.492 87.1318 296.207 87.1318V84.3193C297.438 84.29 298.712 83.7041 300.03 82.5615C301.495 81.2432 302.242 79.6904 302.271 77.9033C302.271 75.6182 300.719 74.0068 297.613 73.0693C296.91 72.8643 295.855 72.6152 294.449 72.3223C293.014 72.0293 292.076 71.7949 291.637 71.6191C289.205 70.6523 287.623 69.4072 286.891 67.8838C286.451 66.917 286.231 65.7891 286.231 64.5ZM296.207 59.0508V56.2383C298.785 56.2383 300.938 57.4102 302.667 59.7539C303.458 60.8379 303.912 61.8193 304.029 62.6982L301.217 63.6211C301.041 62.8301 300.733 62.127 300.294 61.5117C299.884 60.8965 299.444 60.4424 298.976 60.1494C298.536 59.8564 298.097 59.6221 297.657 59.4463C297.247 59.2412 296.91 59.124 296.646 59.0947L296.207 59.0508ZM308.248 87V56.2383H311.236V87H308.248ZM313.126 72.0146L323.717 56.2383H327.013L316.466 72.0146L327.188 87H323.893L313.126 72.0146ZM329.825 87V56.2383H332.813V87H329.825ZM336.505 87V62.083H336.856L339.493 66.3457V87H336.505ZM336.505 58.1279V56.2383H339.142L356.061 83.2646V87H354.566L336.505 58.1279ZM353.072 74.8711V56.2383H356.061V79.2217H355.709L353.072 74.8711ZM359.752 87V62.083H360.104L362.74 66.3457V87H359.752ZM359.752 58.1279V56.2383H362.389L379.308 83.2646V87H377.813L359.752 58.1279ZM376.319 74.8711V56.2383H379.308V79.2217H378.956L376.319 74.8711ZM382.955 87V56.2383H398.951V59.1826H385.943V70.2129H394.82V73.1572H385.943V84.0557H398.951V87H382.955ZM402.511 87V56.2383H405.499V87H402.511ZM407.608 73.4209V70.6523H412.838C415.709 70.6523 417.35 69.2754 417.76 66.5215C417.818 66.0234 417.848 65.4814 417.848 64.8955C417.848 61.5264 416.5 59.5928 413.805 59.0947C413.248 58.9775 412.647 58.9189 412.003 58.9189H407.608V56.2383H412.794C418.097 56.502 420.763 59.3438 420.792 64.7637C420.763 68.3086 419.752 70.7256 417.76 72.0146C419.605 72.8643 420.675 74.5635 420.968 77.1123C420.997 77.2588 421.012 77.376 421.012 77.4639L421.759 87H418.902L418.243 79.1777C418.038 76.541 417.379 74.8564 416.266 74.124C415.475 73.626 414.435 73.3916 413.146 73.4209H407.608Z" fill="#F0F0F0"/>
</g>
<defs>
<clipPath id="clip0">
<rect width="479" height="144" fill="white"/>
</clipPath>
</defs>
</svg>
